<?xml version="1.0" standalone="no"?>
<!DOCTYPE svg PUBLIC "-//W3C//DTD SVG 20010904//EN"
 "http://www.w3.org/TR/2001/REC-SVG-20010904/DTD/svg10.dtd">
<svg version="1.0" xmlns="http://www.w3.org/2000/svg"
 width="531.000000pt" height="470.000000pt" viewBox="0 0 531.000000 470.000000"
 preserveAspectRatio="xMidYMid meet">
<metadata>
Created by potrace 1.10, written by Peter Selinger 2001-2011
</metadata>
<g transform="translate(0.000000,470.000000) scale(0.100000,-0.100000)"
fill="#000000" stroke="none">
<path d="M1960 4525 c-309 -43 -592 -159 -833 -342 -90 -68 -259 -235 -332
-328 -139 -177 -247 -385 -311 -598 -99 -331 -92 -717 18 -1052 44 -133 139
-324 226 -455 101 -153 301 -354 455 -458 326 -222 694 -325 1098 -308 652 27
1209 384 1508 965 258 501 267 1067 26 1569 -159 330 -390 584 -710 777 -326
197 -756 283 -1145 230z m673 -779 c25 -23 30 -41 41 -141 8 -71 61 -171 123
-233 68 -68 157 -110 269 -127 134 -20 129 -9 129 -281 l0 -226 -34 -30 c-34
-30 -34 -30 -119 -24 -92 8 -240 43 -316 75 -26 12 -49 21 -50 21 -2 0 -6 -93
-9 -207 -6 -236 -17 -295 -77 -418 -91 -189 -249 -321 -460 -386 -97 -30 -280
-32 -380 -5 -203 55 -370 187 -465 367 -66 126 -80 187 -80 344 1 124 4 149
28 220 39 117 91 199 187 295 63 64 105 96 165 127 170 88 282 97 314 26 7
-15 11 -104 11 -244 l0 -221 -29 -26 c-16 -15 -44 -38 -61 -51 -62 -47 -78
-143 -37 -215 48 -86 173 -112 251 -52 73 55 69 19 70 731 1 686 0 669 51 694
11 5 115 10 236 10 214 1 216 1 242 -23z"/>
</g>
</svg>
